<mxfile host="65bd71144e">
    <diagram id="bSk1ky4zfcNHuE82E0eM" name="ページ1">
        <mxGraphModel dx="714" dy="738" grid="1" gridSize="10" guides="1" tooltips="1" connect="1" arrows="1" fold="1" page="1" pageScale="1" pageWidth="827" pageHeight="1169" math="0" shadow="0">
            <root>
                <mxCell id="0"/>
                <mxCell id="1" parent="0"/>
                <mxCell id="2" value="プレイヤー" style="shape=umlActor;verticalLabelPosition=bottom;verticalAlign=top;html=1;" vertex="1" parent="1">
                    <mxGeometry x="110" y="260" width="30" height="60" as="geometry"/>
                </mxCell>
                <mxCell id="4" value="リバーシ&lt;br&gt;アプリケーション" style="whiteSpace=wrap;html=1;aspect=fixed;fillColor=none;verticalAlign=top;" vertex="1" parent="1">
                    <mxGeometry x="220" y="60" width="490" height="490" as="geometry"/>
                </mxCell>
                <mxCell id="5" value="対戦する" style="ellipse;whiteSpace=wrap;html=1;fillColor=none;" vertex="1" parent="1">
                    <mxGeometry x="230" y="260" width="140" height="70" as="geometry"/>
                </mxCell>
                <mxCell id="6" value="" style="line;strokeWidth=1;fillColor=none;align=left;verticalAlign=middle;spacingTop=-1;spacingLeft=3;spacingRight=3;rotatable=0;labelPosition=right;points=[];portConstraint=eastwest;strokeColor=inherit;" vertex="1" parent="1">
                    <mxGeometry x="140" y="286" width="90" height="8" as="geometry"/>
                </mxCell>
                <mxCell id="7" value="対戦を開始する&lt;br&gt;盤面を見る&lt;br&gt;石を打つ&lt;br&gt;&lt;div style=&quot;&quot;&gt;&lt;span style=&quot;background-color: initial;&quot;&gt;勝敗を確認する&lt;/span&gt;&lt;/div&gt;" style="shape=note;whiteSpace=wrap;html=1;backgroundOutline=1;darkOpacity=0.05;fillColor=#ffe6cc;align=left;strokeColor=#d79b00;" vertex="1" parent="1">
                    <mxGeometry x="390" y="100" width="120" height="100" as="geometry"/>
                </mxCell>
                <mxCell id="8" value="自分の過去の対戦結果を確認する" style="ellipse;whiteSpace=wrap;html=1;fillColor=none;" vertex="1" parent="1">
                    <mxGeometry x="240" y="364" width="140" height="70" as="geometry"/>
                </mxCell>
                <mxCell id="9" value="会員登録・ログインする" style="ellipse;whiteSpace=wrap;html=1;fillColor=none;" vertex="1" parent="1">
                    <mxGeometry x="240" y="160" width="140" height="70" as="geometry"/>
                </mxCell>
                <mxCell id="10" value="一人で黒白交互に打つ" style="ellipse;whiteSpace=wrap;html=1;fillColor=none;" vertex="1" parent="1">
                    <mxGeometry x="450" y="240" width="140" height="70" as="geometry"/>
                </mxCell>
                <mxCell id="11" value="コンピュータと対戦する" style="ellipse;whiteSpace=wrap;html=1;fillColor=none;" vertex="1" parent="1">
                    <mxGeometry x="520" y="440" width="140" height="70" as="geometry"/>
                </mxCell>
                <mxCell id="12" value="他のプレイヤーと対戦する" style="ellipse;whiteSpace=wrap;html=1;fillColor=none;" vertex="1" parent="1">
                    <mxGeometry x="414" y="490" width="150" height="70" as="geometry"/>
                </mxCell>
                <mxCell id="13" value="プレイヤーのランキングを確認する" style="ellipse;whiteSpace=wrap;html=1;fillColor=none;" vertex="1" parent="1">
                    <mxGeometry x="240" y="460" width="140" height="70" as="geometry"/>
                </mxCell>
                <mxCell id="14" value="Extends" style="endArrow=block;endSize=16;endFill=0;html=1;entryX=1;entryY=0.5;entryDx=0;entryDy=0;exitX=0;exitY=0.5;exitDx=0;exitDy=0;" edge="1" parent="1" source="10" target="5">
                    <mxGeometry width="160" relative="1" as="geometry">
                        <mxPoint x="360" y="320" as="sourcePoint"/>
                        <mxPoint x="520" y="320" as="targetPoint"/>
                    </mxGeometry>
                </mxCell>
                <mxCell id="15" value="Extends" style="endArrow=block;endSize=16;endFill=0;html=1;entryX=0.998;entryY=0.68;entryDx=0;entryDy=0;exitX=0;exitY=0.5;exitDx=0;exitDy=0;entryPerimeter=0;" edge="1" parent="1" source="11" target="5">
                    <mxGeometry width="160" relative="1" as="geometry">
                        <mxPoint x="460" y="285.0000000000001" as="sourcePoint"/>
                        <mxPoint x="380.00000000000114" y="305" as="targetPoint"/>
                    </mxGeometry>
                </mxCell>
                <mxCell id="16" value="Extends" style="endArrow=block;endSize=16;endFill=0;html=1;exitX=0;exitY=0.5;exitDx=0;exitDy=0;entryX=0.927;entryY=0.859;entryDx=0;entryDy=0;entryPerimeter=0;" edge="1" parent="1" source="12" target="5">
                    <mxGeometry width="160" relative="1" as="geometry">
                        <mxPoint x="470" y="295.0000000000001" as="sourcePoint"/>
                        <mxPoint x="370" y="300" as="targetPoint"/>
                    </mxGeometry>
                </mxCell>
                <mxCell id="17" value="" style="endArrow=block;dashed=1;endFill=0;endSize=12;html=1;entryX=1;entryY=0;entryDx=0;entryDy=0;" edge="1" parent="1" source="7" target="5">
                    <mxGeometry width="160" relative="1" as="geometry">
                        <mxPoint x="250" y="310" as="sourcePoint"/>
                        <mxPoint x="410" y="310" as="targetPoint"/>
                    </mxGeometry>
                </mxCell>
                <mxCell id="18" value="" style="rounded=0;whiteSpace=wrap;html=1;fillColor=none;strokeColor=#b85450;strokeWidth=6;" vertex="1" parent="1">
                    <mxGeometry x="230" y="234" width="390" height="206" as="geometry"/>
                </mxCell>
            </root>
        </mxGraphModel>
    </diagram>
</mxfile>
